<svg xmlns:xlink="http://www.w3.org/1999/xlink" width="512" height="512" viewBox="0 0 512 512" fill="none" xmlns="http://www.w3.org/2000/svg"><path fill-rule="evenodd" clip-rule="evenodd" d="M87.6739 290.286C134.623 394.459 183.154 492.605 238.903 348.634C246.529 330.125 252.088 294.155 264.54 294.155V294.338C276.993 294.338 282.55 330.308 290.176 348.816C345.927 492.788 394.457 394.642 441.407 290.469C444.94 282.612 448.334 275.115 451.238 268.598C343.646 354.976 352.704 94.0249 264.54 91.9514V91.7686C176.375 93.8421 185.435 354.793 77.8424 268.418C80.745 274.932 84.139 282.43 87.6739 290.286Z" fill="url(&quot;#paint0_linear_1_40000&quot;)"></path><path d="M77.8431 268.417C130.094 310.527 154.671 270.703 176.316 218.516C158.404 177.155 146.323 151.348 140.533 142.228C129.617 125.024 117.708 111.998 103.062 104.482C76.7723 88.8129 45.0256 85.8965 17.9073 99.5004C9.57481 103.68 7.18265 113.97 11.061 122.447L77.8431 268.417Z" fill="url(&quot;#paint1_linear_1_40000&quot;)"></path><circle cx="462.53" cy="137.141" r="45.0375" fill="url(&quot;#paint2_linear_1_40000&quot;)"></circle><defs><linearGradient id="paint0_linear_1_40000" x1="451.238" y1="421.186" x2="451.238" y2="91.7686" gradientUnits="userSpaceOnUse"><stop stop-color="#7B61FF"></stop><stop offset="1" stop-color="#4A34B8"></stop></linearGradient><linearGradient id="paint1_linear_1_40000" x1="144.459" y1="369.512" x2="34.713" y2="277.613" gradientUnits="userSpaceOnUse"><stop stop-color="#17103C"></stop><stop offset="1" stop-color="#4A34B8"></stop></linearGradient><linearGradient id="paint2_linear_1_40000" x1="490.872" y1="53.6169" x2="439.512" y2="102.476" gradientUnits="userSpaceOnUse"><stop stop-color="#17103C"></stop><stop offset="1" stop-color="#4A34B8"></stop></linearGradient><linearGradient id="paint0_linear_1_40000" x1="451.238" y1="421.186" x2="451.238" y2="91.7686" gradientUnits="userSpaceOnUse"><stop stop-color="#7B61FF"></stop><stop offset="1" stop-color="#4A34B8"></stop></linearGradient><linearGradient id="paint1_linear_1_40000" x1="144.459" y1="369.512" x2="34.713" y2="277.613" gradientUnits="userSpaceOnUse"><stop stop-color="#17103C"></stop><stop offset="1" stop-color="#4A34B8"></stop></linearGradient><linearGradient id="paint2_linear_1_40000" x1="490.872" y1="53.6169" x2="439.512" y2="102.476" gradientUnits="userSpaceOnUse"><stop stop-color="#17103C"></stop><stop offset="1" stop-color="#4A34B8"></stop></linearGradient></defs></svg>